<svg width="25" height="25" viewBox="0 0 25 25" fill="none" xmlns="http://www.w3.org/2000/svg">
<path id="Vector" d="M25 2.5H5.55556C4.81884 2.5 4.1123 2.76339 3.59137 3.23223C3.07044 3.70107 2.77778 4.33696 2.77778 5C2.77778 5.66304 3.07044 6.29893 3.59137 6.76777C4.1123 7.23661 4.81884 7.5 5.55556 7.5H25V23.75C25 24.0815 24.8537 24.3995 24.5932 24.6339C24.3327 24.8683 23.9795 25 23.6111 25H5.55556C4.08213 25 2.66905 24.4732 1.62718 23.5355C0.585316 22.5979 0 21.3261 0 20V5C0 3.67392 0.585316 2.40215 1.62718 1.46447C2.66905 0.526784 4.08213 0 5.55556 0H23.6111C23.9795 0 24.3327 0.131696 24.5932 0.366116C24.8537 0.600537 25 0.918479 25 1.25V2.5ZM2.77778 20C2.77778 20.663 3.07044 21.2989 3.59137 21.7678C4.1123 22.2366 4.81884 22.5 5.55556 22.5H22.2222V10H5.55556C4.58031 10.0014 3.62199 9.77069 2.77778 9.33125V20ZM23.6111 6.25H5.55556C5.1872 6.25 4.83393 6.1183 4.57346 5.88388C4.313 5.64946 4.16667 5.33152 4.16667 5C4.16667 4.66848 4.313 4.35054 4.57346 4.11612C4.83393 3.8817 5.1872 3.75 5.55556 3.75H23.6111V6.25Z" fill="current"/>
</svg>
