<svg width="20" height="22" viewBox="0 0 12 13" fill="none" xmlns="http://www.w3.org/2000/svg">
<g id="uil:calender">
<path id="Vector" d="M9.5 2.09461H8.5V1.57099C8.5 1.43211 8.44732 1.29893 8.35355 1.20073C8.25979 1.10253 8.13261 1.04736 8 1.04736C7.86739 1.04736 7.74021 1.10253 7.64645 1.20073C7.55268 1.29893 7.5 1.43211 7.5 1.57099V2.09461H4.5V1.57099C4.5 1.43211 4.44732 1.29893 4.35355 1.20073C4.25979 1.10253 4.13261 1.04736 4 1.04736C3.86739 1.04736 3.74021 1.10253 3.64645 1.20073C3.55268 1.29893 3.5 1.43211 3.5 1.57099V2.09461H2.5C2.10218 2.09461 1.72064 2.26011 1.43934 2.5547C1.15804 2.8493 1 3.24885 1 3.66547V9.94894C1 10.3656 1.15804 10.7651 1.43934 11.0597C1.72064 11.3543 2.10218 11.5198 2.5 11.5198H9.5C9.89782 11.5198 10.2794 11.3543 10.5607 11.0597C10.842 10.7651 11 10.3656 11 9.94894V3.66547C11 3.24885 10.842 2.8493 10.5607 2.5547C10.2794 2.26011 9.89782 2.09461 9.5 2.09461ZM10 9.94894C10 10.0878 9.94732 10.221 9.85355 10.3192C9.75979 10.4174 9.63261 10.4726 9.5 10.4726H2.5C2.36739 10.4726 2.24021 10.4174 2.14645 10.3192C2.05268 10.221 2 10.0878 2 9.94894V6.28358H10V9.94894ZM10 5.23634H2V3.66547C2 3.5266 2.05268 3.39341 2.14645 3.29522C2.24021 3.19702 2.36739 3.14185 2.5 3.14185H3.5V3.66547C3.5 3.80435 3.55268 3.93753 3.64645 4.03573C3.74021 4.13393 3.86739 4.1891 4 4.1891C4.13261 4.1891 4.25979 4.13393 4.35355 4.03573C4.44732 3.93753 4.5 3.80435 4.5 3.66547V3.14185H7.5V3.66547C7.5 3.80435 7.55268 3.93753 7.64645 4.03573C7.74021 4.13393 7.86739 4.1891 8 4.1891C8.13261 4.1891 8.25979 4.13393 8.35355 4.03573C8.44732 3.93753 8.5 3.80435 8.5 3.66547V3.14185H9.5C9.63261 3.14185 9.75979 3.19702 9.85355 3.29522C9.94732 3.39341 10 3.5266 10 3.66547V5.23634Z" fill="#1B1C3A"/>
</g>
</svg>
