<svg width="24" height="25" viewBox="0 0 24 25" fill="none" xmlns="http://www.w3.org/2000/svg">
<path d="M23.4944 21.9476C23.8163 22.2829 23.9971 22.7377 23.9971 23.2119C23.9971 23.6862 23.8163 24.141 23.4944 24.4763C23.1724 24.8116 22.7358 25 22.2805 25C21.8252 25 21.3886 24.8116 21.0667 24.4763L12 15.0294L2.93047 24.4733C2.60854 24.8086 2.17191 24.997 1.71663 24.997C1.26135 24.997 0.82472 24.8086 0.502789 24.4733C0.180859 24.138 4.79714e-09 23.6832 0 23.209C-4.79714e-09 22.7348 0.180859 22.28 0.502789 21.9446L9.57232 12.5007L0.505645 3.05388C0.183715 2.71855 0.00285616 2.26376 0.00285616 1.78954C0.00285617 1.31532 0.183715 0.860519 0.505645 0.525195C0.827576 0.189871 1.26421 0.00148722 1.71949 0.00148721C2.17476 0.00148721 2.6114 0.189871 2.93333 0.525195L12 9.97206L21.0695 0.523707C21.3915 0.188383 21.8281 -7.90051e-09 22.2834 0C22.7386 7.90051e-09 23.1753 0.188383 23.4972 0.523707C23.8191 0.859031 24 1.31383 24 1.78805C24 2.26227 23.8191 2.71707 23.4972 3.05239L14.4277 12.5007L23.4944 21.9476Z" fill="#888888"/>
</svg>
