<svg width="29" height="29" viewBox="0 0 29 29" fill="none" xmlns="http://www.w3.org/2000/svg">
<g id="Group">
<path id="Vector" d="M14.5 8.25C15.3288 8.25 16.1237 7.92076 16.7097 7.33471C17.2958 6.74866 17.625 5.9538 17.625 5.125C17.625 4.2962 17.2958 3.50134 16.7097 2.91529C16.1237 2.32924 15.3288 2 14.5 2C13.6712 2 12.8763 2.32924 12.2903 2.91529C11.7042 3.50134 11.375 4.2962 11.375 5.125C11.375 5.9538 11.7042 6.74866 12.2903 7.33471C12.8763 7.92076 13.6712 8.25 14.5 8.25ZM14.5 27C15.3288 27 16.1237 26.6708 16.7097 26.0847C17.2958 25.4987 17.625 24.7038 17.625 23.875C17.625 23.0462 17.2958 22.2513 16.7097 21.6653C16.1237 21.0792 15.3288 20.75 14.5 20.75C13.6712 20.75 12.8763 21.0792 12.2903 21.6653C11.7042 22.2513 11.375 23.0462 11.375 23.875C11.375 24.7038 11.7042 25.4987 12.2903 26.0847C12.8763 26.6708 13.6712 27 14.5 27ZM8.25 11.375H2V17.625H8.25V11.375ZM27 11.375H20.75V17.625H27V11.375Z" stroke="current" stroke-width="2.5" stroke-linecap="round" stroke-linejoin="round"/>
<path id="Vector_2" d="M11.375 5.125H5.125V11.375M11.375 23.875H5.125V17.625M17.625 5.125H24.5V11.375M17.625 23.875H23.875V17.625" stroke="current" stroke-width="2.5" stroke-linecap="round" stroke-linejoin="round"/>
</g>
</svg>
