<svg width="16" height="16" viewBox="0 0 16 16" fill="none" xmlns="http://www.w3.org/2000/svg">
<path d="M2 9.3335L4.66667 11.0002L6.66667 8.66683L8.66667 11.3335L10 9.66683L12 10.0002L10 8.00016L8.66667 9.66683L6.66667 6.3335L4.33333 8.8335L2 6.66683V1.99483C2 1.63683 2.298 1.3335 2.66533 1.3335H9.33333V5.3335C9.33333 5.51031 9.40357 5.67988 9.5286 5.8049C9.65362 5.92992 9.82319 6.00016 10 6.00016H14V13.9955C14.0006 14.083 13.984 14.1699 13.951 14.251C13.9181 14.3321 13.8695 14.4059 13.808 14.4683C13.7466 14.5306 13.6734 14.5802 13.5928 14.6143C13.5121 14.6484 13.4255 14.6662 13.338 14.6668H2.662C2.48654 14.6668 2.31826 14.5972 2.19413 14.4732C2.07 14.3492 2.00018 14.181 2 14.0055V9.3335ZM14 4.66683H10.6667V1.3355L14 4.66683Z" fill="#F24E1E"/>
</svg>
