<svg width="81" height="81" viewBox="0 0 81 81" fill="none" xmlns="http://www.w3.org/2000/svg">
<g id="fa-solid:user-graduate" clip-path="url(#clip0_272_78)">
<path id="Vector" d="M57.7487 50.7195L40.5 65.8121L23.2513 50.7195C10.3239 51.2099 0 60.4648 0 71.8871V73.4058C0 77.5982 3.88728 80.9996 8.67857 80.9996H72.3214C77.1127 80.9996 81 77.5982 81 73.4058V71.8871C81 60.4648 70.6761 51.2099 57.7487 50.7195ZM2.45893 12.6242L3.61607 12.8615V22.1005C2.35045 22.765 1.44643 23.9199 1.44643 25.3121C1.44643 26.641 2.27813 27.7484 3.45335 28.4287L0.632812 38.2847C0.325446 39.3763 1.0125 40.4996 2.00692 40.4996H9.56451C10.5589 40.4996 11.246 39.3763 10.9386 38.2847L8.11808 28.4287C9.2933 27.7484 10.125 26.641 10.125 25.3121C10.125 23.9199 9.22098 22.765 7.95536 22.1005V13.7791L19.8884 16.2945C18.3335 19.0156 17.3571 22.0531 17.3571 25.3121C17.3571 36.497 27.7172 45.5621 40.5 45.5621C53.2828 45.5621 63.6429 36.497 63.6429 25.3121C63.6429 22.0531 62.6846 19.0156 61.1116 16.2945L78.523 12.6242C81.8136 11.9281 81.8136 8.33687 78.523 7.64077L44.098 0.363428C41.7475 -0.127002 39.2705 -0.127002 36.9201 0.363428L2.45893 7.62495C-0.813616 8.32104 -0.813616 11.9281 2.45893 12.6242Z" fill="#1B1C3A"/>
</g>
<defs>
<clipPath id="clip0_272_78">
<rect width="81" height="81" fill="white"/>
</clipPath>
</defs>
</svg>
