<svg width="47" height="49" viewBox="0 0 47 49" fill="none" xmlns="http://www.w3.org/2000/svg">
<g id="fa-solid:user-graduate" clip-path="url(#clip0_106_314)">
<path id="Vector" d="M33.5085 30.6821L23.5 39.8122L13.4915 30.6821C5.9904 30.9788 0 36.5774 0 43.4872V44.406C0 46.9421 2.25558 48.9997 5.03571 48.9997H41.9643C44.7444 48.9997 47 46.9421 47 44.406V43.4872C47 36.5774 41.0096 30.9788 33.5085 30.6821ZM1.42679 7.63682L2.09821 7.78037V13.3694C1.36384 13.7714 0.839286 14.47 0.839286 15.3122C0.839286 16.1161 1.32188 16.786 2.00379 17.1976L0.367188 23.1599C0.188839 23.8202 0.5875 24.4997 1.16451 24.4997H5.54978C6.12679 24.4997 6.52545 23.8202 6.3471 23.1599L4.71049 17.1976C5.39241 16.786 5.875 16.1161 5.875 15.3122C5.875 14.47 5.35045 13.7714 4.61607 13.3694V8.33545L11.5402 9.85713C10.6379 11.5032 10.0714 13.3407 10.0714 15.3122C10.0714 22.0784 16.0828 27.5622 23.5 27.5622C30.9172 27.5622 36.9286 22.0784 36.9286 15.3122C36.9286 13.3407 36.3725 11.5032 35.4598 9.85713L45.5627 7.63682C47.4721 7.21572 47.4721 5.04326 45.5627 4.62217L25.5877 0.219824C24.2239 -0.0768555 22.7866 -0.0768555 21.4228 0.219824L1.42679 4.6126C-0.472098 5.03369 -0.472098 7.21572 1.42679 7.63682Z" fill="white"/>
</g>
<defs>
<clipPath id="clip0_106_314">
<rect width="47" height="49" fill="white"/>
</clipPath>
</defs>
</svg>
