<svg width="24" height="25" viewBox="0 0 20 19" fill="none" xmlns="http://www.w3.org/2000/svg">
<g id="twemoji:sports-medal" clip-path="url(#clip0_106_373)">
<path id="Vector" d="M10 4.22222L6.11111 0H0L7.77778 8.97222L14.1783 6.46528L10 4.22222Z" fill="#55ACEE"/>
<path id="Vector_2" d="M13.8889 0L10 4.22222L12.9944 8.08133L13.6761 7.29547L20 0H13.8889Z" fill="#3B88C3"/>
<path id="Vector_3" d="M12.9222 8.45793C12.9666 8.3434 12.995 8.22148 12.995 8.09218C12.995 7.81223 12.8779 7.54374 12.6695 7.34579C12.4612 7.14783 12.1785 7.03662 11.8839 7.03662H8.17997C7.88528 7.03662 7.60267 7.14783 7.39429 7.34579C7.18592 7.54374 7.06886 7.81223 7.06886 8.09218C7.06886 8.22148 7.09663 8.3434 7.14163 8.45793C5.33163 9.42165 4.10608 11.2588 4.10608 13.37C4.10608 16.4791 6.75886 18.9998 10.0322 18.9998C13.305 18.9998 15.9583 16.4791 15.9583 13.37C15.9577 11.2588 14.7327 9.42165 12.9222 8.45793Z" fill="#FFAC33"/>
<path id="Vector_4" d="M10.0322 17.5924C12.4868 17.5924 14.4767 15.702 14.4767 13.3702C14.4767 11.0383 12.4868 9.14795 10.0322 9.14795C7.57761 9.14795 5.58777 11.0383 5.58777 13.3702C5.58777 15.702 7.57761 17.5924 10.0322 17.5924Z" fill="#FFD983"/>
<path id="Vector_5" d="M11.8211 16.1678C11.7402 16.1677 11.6613 16.1435 11.5955 16.0987L9.99999 15.012L8.40498 16.0987C8.3389 16.1438 8.25953 16.168 8.17815 16.1678C8.09678 16.1676 8.01753 16.1431 7.95166 16.0977C7.88579 16.0523 7.83665 15.9883 7.81122 15.9149C7.78579 15.8414 7.78536 15.7623 7.80998 15.6886L8.40498 13.8646L6.82443 12.8064C6.75908 12.7604 6.71059 12.6961 6.68581 12.6226C6.66103 12.549 6.66121 12.4699 6.68633 12.3965C6.71145 12.323 6.76024 12.2589 6.82579 12.2132C6.89135 12.1676 6.97036 12.1426 7.05165 12.1419L9.00943 12.1393L9.63276 10.3607C9.65827 10.2871 9.70754 10.2231 9.77358 10.1777C9.83961 10.1323 9.91904 10.1079 10.0005 10.1079C10.082 10.1079 10.1615 10.1323 10.2275 10.1777C10.2935 10.2231 10.3428 10.2871 10.3683 10.3607L10.9811 12.1393L12.9489 12.1419C13.0303 12.1423 13.1096 12.167 13.1754 12.2127C13.2412 12.2583 13.2902 12.3225 13.3153 12.3961C13.3405 12.4697 13.3406 12.549 13.3156 12.6227C13.2906 12.6963 13.2418 12.7606 13.1761 12.8064L11.595 13.8646L12.19 15.6886C12.2087 15.7437 12.2133 15.8023 12.2036 15.8594C12.1939 15.9166 12.1701 15.9708 12.1341 16.0175C12.0981 16.0643 12.051 16.1023 11.9966 16.1284C11.9422 16.1545 11.8821 16.168 11.8211 16.1678Z" fill="#FFAC33"/>
</g>
<defs>
<clipPath id="clip0_106_373">
<rect width="20" height="19" fill="white"/>
</clipPath>
</defs>
</svg>
