<svg width="32" height="25" viewBox="0 0 32 25" fill="none" xmlns="http://www.w3.org/2000/svg">
<path d="M30.705 14.818C30.3563 14.5441 29.9565 14.3453 29.53 14.2339C29.1035 14.1225 28.6592 14.1007 28.2242 14.1699C30.7277 11.5938 31.9941 9.03269 31.9941 6.52183C31.9941 2.92538 29.156 0.000127484 25.6673 0.000127484C24.7416 -0.00579732 23.8259 0.194861 22.9844 0.588016C22.1429 0.98117 21.396 1.55729 20.7962 2.27593C20.1964 1.55729 19.4495 0.98117 18.608 0.588016C17.7665 0.194861 16.8508 -0.00579732 15.9251 0.000127484C12.4364 0.000127484 9.59824 2.92538 9.59824 6.52183C9.59824 8.01639 10.0302 9.46883 10.9393 11.0055C10.1947 11.1978 9.51518 11.5922 8.97302 12.1468L5.95757 15.2174H2.13294C1.56725 15.2174 1.02473 15.4465 0.624724 15.8542C0.22472 16.2618 0 16.8148 0 17.3913L0 22.8261C0 23.4027 0.22472 23.9556 0.624724 24.3633C1.02473 24.771 1.56725 25 2.13294 25H15.9971C16.0843 24.9999 16.1711 24.989 16.2557 24.9674L24.7875 22.7935C24.8418 22.7803 24.8949 22.7621 24.9461 22.7391L30.1278 20.4919L30.1865 20.4647C30.6845 20.2111 31.1109 19.8324 31.4257 19.3644C31.7404 18.8963 31.933 18.3544 31.9854 17.7895C32.0378 17.2246 31.9483 16.6554 31.7252 16.1355C31.5022 15.6157 31.1529 15.1623 30.7104 14.818H30.705ZM29.252 18.5068L24.1862 20.7052L15.8638 22.8261H7.4653V16.7541L10.4821 13.6808C10.6794 13.478 10.9143 13.3173 11.1732 13.2079C11.432 13.0985 11.7096 13.0426 11.9898 13.0435H18.6632C19.0875 13.0435 19.4944 13.2153 19.7944 13.5211C20.0944 13.8268 20.263 14.2416 20.263 14.674C20.263 15.1064 20.0944 15.5211 19.7944 15.8269C19.4944 16.1326 19.0875 16.3044 18.6632 16.3044H14.9306C14.6478 16.3044 14.3765 16.4189 14.1765 16.6228C13.9765 16.8266 13.8641 17.1031 13.8641 17.3913C13.8641 17.6796 13.9765 17.9561 14.1765 18.1599C14.3765 18.3638 14.6478 18.4783 14.9306 18.4783H19.1965C19.2768 18.4781 19.3568 18.469 19.4351 18.4511L28.3668 16.3574L28.4081 16.3465C28.6808 16.2694 28.9718 16.2977 29.2252 16.4261C29.4786 16.5545 29.6764 16.7739 29.7806 17.042C29.8849 17.3101 29.8881 17.608 29.7898 17.8785C29.6915 18.1489 29.4985 18.3727 29.248 18.5068H29.252Z" fill="current"/>
</svg>
