<svg width="35" height="35" viewBox="0 0 35 35" fill="none" xmlns="http://www.w3.org/2000/svg">
<g id="noto:money-with-wings">
<path id="Vector" d="M15.4436 9.822C15.6077 9.08645 15.4819 9.43645 14.4237 7.8888C13.4722 6.49974 13.669 4.52552 12.5425 3.54388C11.8507 2.94231 10.9839 2.26692 7.75458 3.89114C6.63348 4.45442 4.39403 6.31106 1.85653 7.16145C-0.186049 7.84505 0.945982 8.67083 1.38075 8.82395C2.9284 9.36809 4.97645 8.19231 4.97645 8.19231C4.97645 8.19231 2.03973 10.1118 3.76512 10.5658C5.16512 10.9349 6.92879 9.25325 6.92879 9.25325C6.92879 9.25325 5.20067 11.0853 6.61434 11.5556C7.58505 11.8783 9.51278 10.0353 9.51278 10.0353C9.51278 10.0353 8.16473 11.9083 8.81551 12.3048C9.80536 12.9064 11.4268 11.356 11.4268 11.356C11.4268 11.356 10.139 13.2372 10.8116 13.5435C11.8179 14.0029 13.3108 12.7122 13.3108 12.7122C13.3108 12.7122 15.1483 11.1372 15.4436 9.822Z" fill="#E0E0E0"/>
<path id="Vector_2" d="M9.75615 3.7627C9.75615 3.7627 7.99522 4.79629 7.35264 5.62754C7.26787 5.73691 6.74014 6.26465 7.20498 6.56816C7.32256 6.64473 7.67256 6.59551 7.88037 6.46973C8.82647 5.89551 10.4999 4.53379 10.6831 4.60488C10.8663 4.67598 9.1874 5.78066 8.646 7.11777C8.44365 7.6209 8.8374 7.98184 9.86279 7.37754C10.9784 6.72129 11.9382 5.56465 12.0995 5.57012C12.0995 5.57012 11.6511 6.35215 11.0769 6.97012C10.4917 7.60176 10.0788 8.24434 10.5108 8.44668C11.055 8.70371 12.2308 8.00645 12.2308 8.00645C12.2308 8.00645 11.4815 8.91426 10.5108 9.11934C10.169 9.19316 9.90107 9.14668 9.73701 8.96074C9.48818 8.67637 9.58389 8.23887 9.58389 8.23887C9.06709 8.44394 8.17568 8.77754 7.64522 8.3291C7.23232 7.9791 7.79561 6.95371 7.79561 6.95371C7.79561 6.95371 6.79756 7.50605 6.22881 7.33926C5.9335 7.25176 5.48232 6.8252 6.14131 5.92012C7.18037 4.50645 9.75615 3.7627 9.75615 3.7627ZM11.8616 13.7076C13.0019 12.2256 14.1421 10.7463 15.2823 9.26426L15.1839 8.8377C15.1347 8.6873 14.6862 8.66816 14.0655 9.02637C13.6499 9.26699 12.887 10.1311 12.3976 9.65527C12.0585 9.32715 13.0319 8.1541 13.0319 8.1541C12.8979 8.15684 11.8179 8.87871 11.6456 9.60332C11.4979 10.2186 11.6401 10.9404 13.0292 10.2377C13.0702 10.2158 13.114 10.1912 13.155 10.1666C12.98 10.4428 12.8214 10.7326 12.6874 11.0279C12.2991 11.8811 12.0694 12.7943 11.8616 13.7076Z" fill="#BDBDBD"/>
<path id="Vector_3" d="M22.2551 3.04346L22.2743 3.05713L22.2551 3.04346Z" fill="url(#paint0_linear_362_143)"/>
<path id="Vector_4" d="M23.8246 19.3675C21.0766 23.4855 18.7661 28.0218 13.5106 29.4109C13.4559 29.4246 13.3985 29.4082 13.3602 29.3671L4.77425 19.8925C4.51996 19.6109 4.64574 19.1652 5.00668 19.0476C8.53675 17.8882 10.7407 15.1265 12.7039 12.1816C15.411 8.12652 17.7297 3.66402 22.8184 2.20113C23.0125 2.1273 23.2395 2.17379 23.3871 2.33511C24.5274 3.59293 33.127 11.7796 33.1407 11.7961C33.1461 11.7988 25.9328 16.2066 23.8246 19.3675Z" fill="#66BB6A"/>
<path id="Vector_5" d="M15.8894 21.249C15.7034 21.0631 15.4819 20.9701 15.2249 20.9729C14.9679 20.9756 14.6343 21.0795 14.2214 21.2846C13.6608 21.5826 13.1741 21.7221 12.7667 21.7084C12.3593 21.692 11.9929 21.5225 11.6702 21.1971C11.3394 20.8662 11.1644 20.4971 11.148 20.0924C11.1288 19.6877 11.2683 19.2967 11.5663 18.9193L11.044 18.3943C11.0072 18.3567 10.9866 18.3062 10.9866 18.2535C10.9866 18.2009 11.0072 18.1503 11.044 18.1127L11.2136 17.9432C11.2901 17.8666 11.4159 17.8666 11.4952 17.9432L12.0202 18.4709C12.4058 18.1783 12.8132 18.058 13.2397 18.1072C13.6226 18.1537 13.9999 18.3424 14.369 18.6814C14.4401 18.7471 14.4401 18.8619 14.3718 18.9303L14.0601 19.242C13.9944 19.3076 13.8878 19.3076 13.8194 19.2447C13.5733 19.0314 13.319 18.9084 13.0593 18.8811C12.7558 18.8482 12.4878 18.9467 12.2581 19.1764C12.0175 19.417 11.8944 19.6631 11.8917 19.9119C11.889 20.1635 11.9983 20.4014 12.2198 20.6229C12.4249 20.8307 12.6573 20.9264 12.9144 20.9154C13.1714 20.9045 13.5023 20.7951 13.9124 20.5873C14.3226 20.3795 14.6698 20.251 14.9651 20.199C15.2577 20.1471 15.5257 20.1607 15.7663 20.2373C16.0069 20.3166 16.2339 20.4615 16.4472 20.6748C16.7862 21.0166 16.9585 21.3939 16.9612 21.8068C16.964 22.2197 16.7999 22.6299 16.4663 23.0373L16.9038 23.4748C16.9804 23.5514 16.9804 23.6771 16.9038 23.7564L16.737 23.9232C16.6605 23.9998 16.5347 23.9998 16.4554 23.9232L16.0179 23.4857C15.6077 23.8248 15.1784 23.9861 14.7327 23.9643C14.3362 23.9451 13.9562 23.7756 13.5952 23.4557C13.5779 23.44 13.564 23.4209 13.5544 23.3996C13.5448 23.3783 13.5397 23.3552 13.5395 23.3318C13.5392 23.3085 13.5438 23.2853 13.5529 23.2638C13.562 23.2423 13.5755 23.2229 13.5925 23.2068L13.9097 22.8924C13.9726 22.8295 14.0737 22.824 14.1421 22.8814C14.3855 23.092 14.637 23.1986 14.8968 23.2041C15.1948 23.2096 15.4792 23.0756 15.7499 22.8049C16.0151 22.5424 16.1601 22.2689 16.1847 21.9928C16.2038 21.7166 16.1081 21.4678 15.8894 21.249Z" fill="white"/>
<path id="Vector_6" d="M16.5895 23.1713L16.0153 23.4912L11.5774 18.9357L11.427 18.7826L12.0204 18.4736L16.4583 23.04L16.5895 23.1713Z" fill="white"/>
<path id="Vector_7" opacity="0.5" d="M20.7484 16.3981C22.926 16.3981 24.6914 14.6328 24.6914 12.4552C24.6914 10.2775 22.926 8.51221 20.7484 8.51221C18.5707 8.51221 16.8054 10.2775 16.8054 12.4552C16.8054 14.6328 18.5707 16.3981 20.7484 16.3981Z" fill="#2E7D32"/>
<path id="Vector_8" d="M25.2 21.4432C23.7917 23.5541 21.7628 27.5818 18.9683 29.7967C16.4035 31.8311 13.1687 32.8346 13.1687 32.8346L4.26831 22.4111L4.63745 19.551L13.3656 29.3701C13.4011 29.4084 13.4558 29.4275 13.5078 29.4139C18.766 28.0248 21.0765 23.4885 23.8246 19.3705C25.9328 16.2096 29.0855 12.8408 33.1433 11.8018C33.466 12.1572 33.3238 15.1377 32.971 15.2553C29.3753 16.4475 27.1687 18.4873 25.2 21.4432Z" fill="#2E7D32"/>
<path id="Vector_9" d="M21.5605 22.8375L22.3863 25.8863C22.3863 25.8863 24.902 22.2059 25.3094 21.3145L24.3961 18.5664C23.1766 20.084 21.5605 22.8375 21.5605 22.8375Z" fill="#FFC06C"/>
<path id="Vector_10" d="M21.3473 4.65107C21.5578 4.95459 21.927 5.26904 22.5203 5.45225C22.7309 5.51787 22.9523 5.55068 23.1738 5.55068C23.6441 5.55068 24.0379 5.40576 24.3031 5.27178C24.9676 5.93897 25.7988 6.75107 26.6027 7.53857C27.3902 8.30967 28.1996 9.10264 28.8586 9.76162C28.6453 10.087 28.4758 10.5792 28.5469 11.2437C28.5797 11.5499 28.7957 11.8616 29.0254 12.1159C27.5707 13.0511 24.7789 15.1292 21.916 18.7933C21.3117 19.5671 20.7211 20.4257 20.1523 21.2542C18.7359 23.3159 17.273 25.4433 15.3262 26.7448C15.0965 26.3702 14.6727 25.9163 13.9152 25.7276C13.732 25.6812 13.5516 25.6593 13.3793 25.6593C12.8926 25.6593 12.5098 25.8397 12.2363 26.053L8.10742 21.3062C8.45469 21.0354 8.78008 20.5733 8.81289 19.8597C8.8293 19.5261 8.65156 19.2226 8.44922 18.9929C10.4617 17.5026 12.5863 15.1265 13.7293 13.4202C13.8961 13.1714 14.0684 12.9116 14.2461 12.6437C16.0344 9.94482 18.457 6.30264 21.3473 4.65107ZM21.5633 4.01123C18.0852 5.73389 15.3152 10.221 13.3437 13.1577C12.0531 15.08 9.7207 17.5874 7.71094 18.9409C7.71094 18.9409 8.36992 19.4085 8.34805 19.8323C8.29336 20.9698 7.36914 21.1612 7.36914 21.1612L12.2227 26.7394C12.2227 26.7394 12.5781 26.1159 13.3766 26.1159C13.5051 26.1159 13.6473 26.1323 13.8004 26.1706C14.8996 26.444 15.1211 27.412 15.1211 27.412C18.2219 25.6073 20.0949 21.8694 22.277 19.0722C25.2383 15.2796 28.1832 13.1304 29.7773 12.187C29.7773 12.187 29.0445 11.5937 29.0035 11.189C28.8914 10.1253 29.493 9.74248 29.493 9.74248C28.0848 8.31787 25.7715 6.10029 24.3715 4.68115C24.3715 4.68115 23.8629 5.08037 23.1711 5.08037C23.007 5.08037 22.832 5.0585 22.6543 5.00381C21.648 4.70029 21.5633 4.01123 21.5633 4.01123Z" fill="#2E7D32"/>
<path id="Vector_11" d="M14.7165 9.11084L12.0559 13.1331L21.5606 22.8374C21.5606 22.8374 23.1137 20.3819 24.3934 18.5663L14.7165 9.11084Z" fill="#FFECB3"/>
<path id="Vector_12" opacity="0.68" d="M24.7788 19.7202C24.7788 19.7202 22.903 20.6745 22.3917 23.5839C22.1975 24.6831 22.389 25.8862 22.389 25.8862L23.9366 23.5046L25.044 20.1933L24.7788 19.7202Z" fill="#D69136"/>
<path id="Vector_13" d="M24.2402 20.3518C24.7844 19.8295 24.9648 19.6682 26.6656 19.5451C28.3445 19.4221 29.1156 18.6865 31.2375 19.1268C32.1344 19.3127 33.5563 20.133 33.1953 23.4033C33.0586 24.6502 33.0914 27.5322 33.6793 30.1435C34.1523 32.2435 32.859 31.7049 32.5035 31.4123C31.2348 30.3705 31.1801 28.0107 31.1801 28.0107C31.1801 28.0107 31.0598 31.5162 29.7773 30.2775C28.7383 29.2713 29.2606 26.8924 29.2606 26.8924C29.2606 26.8924 28.5879 29.3205 27.4531 28.3525C26.6738 27.6881 27.2535 25.085 27.2535 25.085C27.2535 25.085 26.3484 27.2096 25.6758 26.8568C24.6477 26.3209 25.1344 24.1307 25.1344 24.1307C25.1344 24.1307 24.1938 26.206 23.5813 25.7877C22.668 25.1643 22.9988 23.2201 22.9988 23.2201C22.9988 23.2201 23.2668 21.2842 24.2402 20.3518Z" fill="#E0E0E0"/>
<path id="Vector_14" d="M32.3585 21.6782C32.3585 21.6782 32.4898 23.3681 32.3722 24.3771C32.2984 25.0032 32.2655 25.5774 31.6913 25.4927C31.5519 25.4708 31.2265 25.2001 31.1691 24.1583C31.1089 23.0536 31.3386 21.5935 31.1773 21.4841C31.0159 21.372 31.0077 23.2888 30.2093 24.4892C29.9085 24.9403 29.4027 24.9896 29.3234 23.8001C29.2359 22.5067 29.9058 20.9755 29.8101 20.8442C29.8101 20.8442 29.2441 21.5415 28.9159 22.5286C28.5878 23.5157 28.4429 23.9806 28.0573 23.6962C27.3655 23.1876 28.38 21.1614 28.38 21.1614C28.38 21.1614 27.6362 21.8259 27.3136 22.7556C27.1085 23.3462 27.2206 24.3169 27.7456 24.563C28.3636 24.8528 28.7245 24.336 28.7245 24.336C28.7245 24.336 28.8558 25.9903 29.6624 25.9548C30.4362 25.9192 30.6331 25.047 30.6331 25.047C30.6331 25.047 30.6003 25.8892 31.3823 26.4661C31.7624 26.7478 32.6456 26.7942 32.755 25.6786C32.9327 23.8685 32.3585 21.6782 32.3585 21.6782ZM25.9956 21.0849C25.8288 21.0438 25.5882 21.7958 25.2874 22.2196C25.1726 22.3782 24.9265 22.7036 24.5491 22.6763C24.1718 22.6489 24.4698 21.5388 24.3823 21.5989C24.2948 21.6591 23.9421 22.2524 24.0816 22.9415C24.1198 23.1329 24.314 23.3599 24.5054 23.3899C25.2218 23.5048 25.5362 22.6243 25.5362 22.6243C25.5362 22.6243 25.4296 23.677 26.1378 23.7864C26.9937 23.9177 27.1687 22.5696 27.0921 22.5204C27.0155 22.4712 26.7394 23.3681 26.1296 22.9853C25.6292 22.6681 26.1624 21.1286 25.9956 21.0849Z" fill="#BDBDBD"/>
<path id="Vector_15" d="M4.26831 22.408L13.1359 32.7959C13.1359 32.7959 13.5324 32.208 13.6226 31.292C13.7019 30.4936 13.423 29.4326 13.423 29.4326L4.63745 19.5479L4.26831 22.408Z" fill="#206022"/>
</g>
<defs>
<linearGradient id="paint0_linear_362_143" x1="22.2651" y1="3.05076" x2="22.2651" y2="3.05076" gradientUnits="userSpaceOnUse">
<stop stop-color="#43A047"/>
<stop offset="0.999" stop-color="#66BB6A"/>
</linearGradient>
</defs>
</svg>
