<svg width="25" height="25" viewBox="0 0 25 25" fill="none" xmlns="http://www.w3.org/2000/svg">
<path id="Vector" d="M12.5 25L8.33333 21.4286H2.77778C2.01389 21.4286 1.35972 21.1952 0.81528 20.7286C0.270835 20.2619 -0.000923568 19.7016 2.35805e-06 19.0476V2.38095C2.35805e-06 1.72619 0.272225 1.16548 0.816669 0.698811C1.36111 0.232145 2.01482 -0.00079163 2.77778 2.02118e-06H22.2222C22.9861 2.02118e-06 23.6403 0.233335 24.1847 0.700002C24.7292 1.16667 25.0009 1.72699 25 2.38095V19.0476C25 19.7024 24.7278 20.2631 24.1833 20.7298C23.6389 21.1964 22.9852 21.4294 22.2222 21.4286H16.6667L12.5 25ZM2.77778 17.6786C4.02778 16.627 5.48056 15.7988 7.13611 15.194C8.79167 14.5893 10.5796 14.2865 12.5 14.2857C14.4213 14.2857 16.2097 14.5885 17.8653 15.194C19.5208 15.7996 20.9731 16.6278 22.2222 17.6786V2.38095H2.77778V17.6786ZM12.5 11.9048C13.8426 11.9048 14.9884 11.498 15.9375 10.6845C16.8866 9.87103 17.3611 8.88889 17.3611 7.7381C17.3611 6.5873 16.8866 5.60516 15.9375 4.79167C14.9884 3.97818 13.8426 3.57143 12.5 3.57143C11.1574 3.57143 10.0116 3.97818 9.0625 4.79167C8.11343 5.60516 7.63889 6.5873 7.63889 7.7381C7.63889 8.88889 8.11343 9.87103 9.0625 10.6845C10.0116 11.498 11.1574 11.9048 12.5 11.9048ZM12.5 9.52381C11.9213 9.52381 11.4292 9.35 11.0236 9.00238C10.6181 8.65476 10.4157 8.23333 10.4167 7.7381C10.4167 7.24206 10.6194 6.82024 11.025 6.47262C11.4306 6.125 11.9222 5.95159 12.5 5.95238C13.0787 5.95238 13.5708 6.12619 13.9764 6.47381C14.3819 6.82143 14.5843 7.24286 14.5833 7.7381C14.5833 8.23413 14.3806 8.65595 13.975 9.00357C13.5694 9.35119 13.0778 9.5246 12.5 9.52381ZM12.5 21.6667L15.5556 19.0476H19.4444V18.75C18.4722 18.0556 17.3958 17.5349 16.2153 17.1881C15.0347 16.8413 13.7963 16.6675 12.5 16.6667C11.2037 16.6667 9.96528 16.8405 8.78472 17.1881C7.60417 17.5357 6.52778 18.0563 5.55556 18.75V19.0476H9.44445L12.5 21.6667Z" fill="current"/>
</svg>
