<svg width="40" height="55" viewBox="0 0 55 69" fill="none" xmlns="http://www.w3.org/2000/svg">
<path d="M7.33333 12.1765C7.33333 11.1 7.71964 10.0676 8.40728 9.30645C9.09491 8.54527 10.0275 8.11765 11 8.11765H33C33.9725 8.11765 34.9051 8.54527 35.5927 9.30645C36.2804 10.0676 36.6667 11.1 36.6667 12.1765V16.2353C36.6667 17.3118 36.2804 18.3441 35.5927 19.1053C34.9051 19.8665 33.9725 20.2941 33 20.2941H11C10.0275 20.2941 9.09491 19.8665 8.40728 19.1053C7.71964 18.3441 7.33333 17.3118 7.33333 16.2353V12.1765ZM11 12.1765V16.2353H33V12.1765H11ZM0 8.11765V56.8235C0 58.9765 0.772617 61.0412 2.14788 62.5636C3.52315 64.0859 5.38841 64.9412 7.33333 64.9412H22.9423C22.0084 63.6892 21.2006 62.3282 20.5333 60.8824H7.33333C6.36087 60.8824 5.42824 60.4547 4.74061 59.6936C4.05298 58.9324 3.66667 57.9 3.66667 56.8235H19.0923C18.7535 55.4967 18.5264 54.1379 18.414 52.7647H3.66667V8.11765C3.66667 7.04118 4.05298 6.0088 4.74061 5.24763C5.42824 4.48645 6.36087 4.05882 7.33333 4.05882H36.6667C37.6391 4.05882 38.5718 4.48645 39.2594 5.24763C39.947 6.0088 40.3333 7.04118 40.3333 8.11765V28.5011C41.5947 28.6282 42.8169 28.8785 44 29.2519V8.11765C44 5.96471 43.2274 3.89996 41.8521 2.3776C40.4768 0.855249 38.6116 0 36.6667 0H7.33333C5.38841 0 3.52315 0.855249 2.14788 2.3776C0.772617 3.89996 0 5.96471 0 8.11765ZM55 50.7353C55 55.5794 53.2616 60.2251 50.1673 63.6504C47.0729 67.0757 42.8761 69 38.5 69C34.1239 69 29.9271 67.0757 26.8327 63.6504C23.7384 60.2251 22 55.5794 22 50.7353C22 45.8912 23.7384 41.2455 26.8327 37.8202C29.9271 34.3949 34.1239 32.4706 38.5 32.4706C42.8761 32.4706 47.0729 34.3949 50.1673 37.8202C53.2616 41.2455 55 45.8912 55 50.7353ZM45.298 46.0839C45.6423 45.7028 45.8356 45.186 45.8356 44.6471C45.8356 44.1081 45.6423 43.5913 45.298 43.2102C44.9538 42.8292 44.4868 42.6151 44 42.6151C43.5132 42.6151 43.0463 42.8292 42.702 43.2102L38.5 47.8657L34.298 43.2102C33.9538 42.8292 33.4868 42.6151 33 42.6151C32.5132 42.6151 32.0463 42.8292 31.702 43.2102C31.3577 43.5913 31.1644 44.1081 31.1644 44.6471C31.1644 45.186 31.3577 45.7028 31.702 46.0839L35.9077 50.7353L31.702 55.3867C31.5315 55.5754 31.3963 55.7994 31.3041 56.0459C31.2118 56.2925 31.1644 56.5567 31.1644 56.8235C31.1644 57.0904 31.2118 57.3546 31.3041 57.6011C31.3963 57.8477 31.5315 58.0717 31.702 58.2604C31.8725 58.449 32.0748 58.5987 32.2975 58.7008C32.5202 58.8029 32.7589 58.8555 33 58.8555C33.2411 58.8555 33.4798 58.8029 33.7025 58.7008C33.9252 58.5987 34.1275 58.449 34.298 58.2604L38.5 53.6049L42.702 58.2604C42.8725 58.449 43.0748 58.5987 43.2975 58.7008C43.5202 58.8029 43.7589 58.8555 44 58.8555C44.2411 58.8555 44.4798 58.8029 44.7025 58.7008C44.9252 58.5987 45.1275 58.449 45.298 58.2604C45.4685 58.0717 45.6037 57.8477 45.6959 57.6011C45.7882 57.3546 45.8356 57.0904 45.8356 56.8235C45.8356 56.5567 45.7882 56.2925 45.6959 56.0459C45.6037 55.7994 45.4685 55.5754 45.298 55.3867L41.0923 50.7353L45.298 46.0839Z" fill="#1B1C3A"/>
</svg>
