<svg width="31" height="31" viewBox="0 0 31 31" fill="none" xmlns="http://www.w3.org/2000/svg">
<g id="tabler:rosette-number-2">
<g id="Group">
<path id="Vector" d="M12.7839 10.271H16.5339C16.8655 10.271 17.1834 10.4027 17.4178 10.6371C17.6522 10.8715 17.7839 11.1895 17.7839 11.521V14.021C17.7839 14.3525 17.6522 14.6705 17.4178 14.9049C17.1834 15.1393 16.8655 15.271 16.5339 15.271H14.0339C13.7024 15.271 13.3845 15.4027 13.1501 15.6371C12.9156 15.8715 12.7839 16.1895 12.7839 16.521V19.021C12.7839 19.3525 12.9156 19.6705 13.1501 19.9049C13.3845 20.1393 13.7024 20.271 14.0339 20.271H17.7839" stroke="#1B1C3A" stroke-width="2" stroke-linecap="round" stroke-linejoin="round"/>
<path id="Vector_2" d="M6.5339 9.27108C6.5339 8.54174 6.82363 7.84227 7.33936 7.32654C7.85508 6.81082 8.55456 6.52108 9.2839 6.52108H10.5339C11.26 6.52067 11.9565 6.23309 12.4714 5.72108L13.3464 4.84608C13.602 4.58908 13.9058 4.38514 14.2405 4.24597C14.5751 4.1068 14.934 4.03516 15.2964 4.03516C15.6588 4.03516 16.0177 4.1068 16.3523 4.24597C16.687 4.38514 16.9908 4.58908 17.2464 4.84608L18.1214 5.72108C18.6364 6.23358 19.3339 6.52108 20.0589 6.52108H21.3089C22.0382 6.52108 22.7377 6.81082 23.2534 7.32654C23.7692 7.84227 24.0589 8.54174 24.0589 9.27108V10.5211C24.0589 11.2461 24.3464 11.9436 24.8589 12.4586L25.7339 13.3336C25.9909 13.5891 26.1948 13.893 26.334 14.2276C26.4732 14.5623 26.5448 14.9211 26.5448 15.2836C26.5448 15.646 26.4732 16.0049 26.334 16.3395C26.1948 16.6742 25.9909 16.978 25.7339 17.2336L24.8589 18.1086C24.3469 18.6235 24.0593 19.32 24.0589 20.0461V21.2961C24.0589 22.0254 23.7692 22.7249 23.2534 23.2406C22.7377 23.7564 22.0382 24.0461 21.3089 24.0461H20.0589C19.3328 24.0465 18.6363 24.3341 18.1214 24.8461L17.2464 25.7211C16.9908 25.9781 16.687 26.182 16.3523 26.3212C16.0177 26.4604 15.6588 26.532 15.2964 26.532C14.934 26.532 14.5751 26.4604 14.2405 26.3212C13.9058 26.182 13.602 25.9781 13.3464 25.7211L12.4714 24.8461C11.9565 24.3341 11.26 24.0465 10.5339 24.0461H9.2839C8.55456 24.0461 7.85508 23.7564 7.33936 23.2406C6.82363 22.7249 6.5339 22.0254 6.5339 21.2961V20.0461C6.53349 19.32 6.2459 18.6235 5.7339 18.1086L4.8589 17.2336C4.6019 16.978 4.39795 16.6742 4.25879 16.3395C4.11962 16.0049 4.04797 15.646 4.04797 15.2836C4.04797 14.9211 4.11962 14.5623 4.25879 14.2276C4.39795 13.893 4.6019 13.5891 4.8589 13.3336L5.7339 12.4586C6.2459 11.9437 6.53349 11.2472 6.5339 10.5211V9.27108Z" stroke="#1B1C3A" stroke-width="2" stroke-linecap="round" stroke-linejoin="round"/>
</g>
</g>
</svg>
