<svg width="31" height="31" viewBox="0 0 31 31" fill="none" xmlns="http://www.w3.org/2000/svg">
<g id="tabler:rosette-number-4">
<g id="Group">
<path id="Vector" d="M12.7839 10.2031V13.9531C12.7839 14.2846 12.9156 14.6026 13.1501 14.837C13.3845 15.0714 13.7024 15.2031 14.0339 15.2031H17.7839M17.7839 10.2031V20.2031" stroke="#1B1C3A" stroke-width="2" stroke-linecap="round" stroke-linejoin="round"/>
<path id="Vector_2" d="M6.53402 9.20321C6.53402 8.47387 6.82376 7.77439 7.33948 7.25867C7.85521 6.74294 8.55468 6.45321 9.28402 6.45321H10.534C11.2601 6.4528 11.9566 6.16522 12.4715 5.65321L13.3465 4.77821C13.6021 4.52121 13.9059 4.31727 14.2406 4.1781C14.5752 4.03893 14.9341 3.96729 15.2965 3.96729C15.659 3.96729 16.0178 4.03893 16.3525 4.1781C16.6871 4.31727 16.991 4.52121 17.2465 4.77821L18.1215 5.65321C18.6365 6.16571 19.334 6.45321 20.059 6.45321H21.309C22.0384 6.45321 22.7378 6.74294 23.2536 7.25867C23.7693 7.77439 24.059 8.47387 24.059 9.20321V10.4532C24.059 11.1782 24.3465 11.8757 24.859 12.3907L25.734 13.2657C25.991 13.5213 26.195 13.8251 26.3341 14.1598C26.4733 14.4944 26.545 14.8533 26.545 15.2157C26.545 15.5781 26.4733 15.937 26.3341 16.2717C26.195 16.6063 25.991 16.9102 25.734 17.1657L24.859 18.0407C24.347 18.5556 24.0594 19.2521 24.059 19.9782V21.2282C24.059 21.9576 23.7693 22.657 23.2536 23.1728C22.7378 23.6885 22.0384 23.9782 21.309 23.9782H20.059C19.3329 23.9786 18.6364 24.2662 18.1215 24.7782L17.2465 25.6532C16.991 25.9102 16.6871 26.1142 16.3525 26.2533C16.0178 26.3925 15.659 26.4641 15.2965 26.4641C14.9341 26.4641 14.5752 26.3925 14.2406 26.2533C13.9059 26.1142 13.6021 25.9102 13.3465 25.6532L12.4715 24.7782C11.9566 24.2662 11.2601 23.9786 10.534 23.9782H9.28402C8.55468 23.9782 7.85521 23.6885 7.33948 23.1728C6.82376 22.657 6.53402 21.9576 6.53402 21.2282V19.9782C6.53361 19.2521 6.24603 18.5556 5.73402 18.0407L4.85902 17.1657C4.60202 16.9102 4.39808 16.6063 4.25891 16.2717C4.11974 15.937 4.0481 15.5781 4.0481 15.2157C4.0481 14.8533 4.11974 14.4944 4.25891 14.1598C4.39808 13.8251 4.60202 13.5213 4.85902 13.2657L5.73402 12.3907C6.24603 11.8758 6.53361 11.1793 6.53402 10.4532V9.20321Z" stroke="#1B1C3A" stroke-width="2" stroke-linecap="round" stroke-linejoin="round"/>
</g>
</g>
</svg>
