<svg width="31" height="31" viewBox="0 0 31 31" fill="none" xmlns="http://www.w3.org/2000/svg">
<g id="tabler:rosette-number-3">
<g id="Group">
<path id="Vector" d="M12.7839 11.4531C12.7839 11.1216 12.9156 10.8037 13.1501 10.5692C13.3845 10.3348 13.7024 10.2031 14.0339 10.2031H16.5339C16.8655 10.2031 17.1834 10.3348 17.4178 10.5692C17.6522 10.8037 17.7839 11.1216 17.7839 11.4531V13.9531C17.7839 14.2846 17.6522 14.6026 17.4178 14.837C17.1834 15.0714 16.8655 15.2031 16.5339 15.2031M16.5339 15.2031H14.0339M16.5339 15.2031C16.8655 15.2031 17.1834 15.3348 17.4178 15.5692C17.6522 15.8037 17.7839 16.1216 17.7839 16.4531V18.9531C17.7839 19.2846 17.6522 19.6026 17.4178 19.837C17.1834 20.0714 16.8655 20.2031 16.5339 20.2031H14.0339C13.7024 20.2031 13.3845 20.0714 13.1501 19.837C12.9156 19.6026 12.7839 19.2846 12.7839 18.9531" stroke="#1B1C3A" stroke-width="2" stroke-linecap="round" stroke-linejoin="round"/>
<path id="Vector_2" d="M6.5339 9.20321C6.5339 8.47387 6.82363 7.77439 7.33936 7.25867C7.85508 6.74294 8.55456 6.45321 9.2839 6.45321H10.5339C11.26 6.4528 11.9565 6.16522 12.4714 5.65321L13.3464 4.77821C13.602 4.52121 13.9058 4.31727 14.2405 4.1781C14.5751 4.03893 14.934 3.96729 15.2964 3.96729C15.6588 3.96729 16.0177 4.03893 16.3523 4.1781C16.687 4.31727 16.9908 4.52121 17.2464 4.77821L18.1214 5.65321C18.6364 6.16571 19.3339 6.45321 20.0589 6.45321H21.3089C22.0382 6.45321 22.7377 6.74294 23.2534 7.25867C23.7692 7.77439 24.0589 8.47387 24.0589 9.20321V10.4532C24.0589 11.1782 24.3464 11.8757 24.8589 12.3907L25.7339 13.2657C25.9909 13.5213 26.1948 13.8251 26.334 14.1598C26.4732 14.4944 26.5448 14.8533 26.5448 15.2157C26.5448 15.5781 26.4732 15.937 26.334 16.2717C26.1948 16.6063 25.9909 16.9102 25.7339 17.1657L24.8589 18.0407C24.3469 18.5556 24.0593 19.2521 24.0589 19.9782V21.2282C24.0589 21.9576 23.7692 22.657 23.2534 23.1728C22.7377 23.6885 22.0382 23.9782 21.3089 23.9782H20.0589C19.3328 23.9786 18.6363 24.2662 18.1214 24.7782L17.2464 25.6532C16.9908 25.9102 16.687 26.1142 16.3523 26.2533C16.0177 26.3925 15.6588 26.4641 15.2964 26.4641C14.934 26.4641 14.5751 26.3925 14.2405 26.2533C13.9058 26.1142 13.602 25.9102 13.3464 25.6532L12.4714 24.7782C11.9565 24.2662 11.26 23.9786 10.5339 23.9782H9.2839C8.55456 23.9782 7.85508 23.6885 7.33936 23.1728C6.82363 22.657 6.5339 21.9576 6.5339 21.2282V19.9782C6.53349 19.2521 6.2459 18.5556 5.7339 18.0407L4.8589 17.1657C4.6019 16.9102 4.39795 16.6063 4.25879 16.2717C4.11962 15.937 4.04797 15.5781 4.04797 15.2157C4.04797 14.8533 4.11962 14.4944 4.25879 14.1598C4.39795 13.8251 4.6019 13.5213 4.8589 13.2657L5.7339 12.3907C6.2459 11.8758 6.53349 11.1793 6.5339 10.4532V9.20321Z" stroke="#1B1C3A" stroke-width="2" stroke-linecap="round" stroke-linejoin="round"/>
</g>
</g>
</svg>
