<svg width="30" height="30" viewBox="0 0 30 30" fill="none" xmlns="http://www.w3.org/2000/svg">
<g id="tabler:rosette-number-1">
<g id="Group">
<path id="Vector" d="M12.5 12.5L15 10V20" stroke="#FFD233" stroke-width="2" stroke-linecap="round" stroke-linejoin="round"/>
<path id="Vector_2" d="M6.24997 9.00009C6.24997 8.27074 6.5397 7.57127 7.05542 7.05554C7.57115 6.53982 8.27062 6.25009 8.99997 6.25009H10.25C10.9761 6.24967 11.6726 5.96209 12.1875 5.45009L13.0625 4.57509C13.318 4.31809 13.6219 4.11414 13.9565 3.97497C14.2912 3.8358 14.65 3.76416 15.0125 3.76416C15.3749 3.76416 15.7338 3.8358 16.0684 3.97497C16.4031 4.11414 16.7069 4.31809 16.9625 4.57509L17.8375 5.45009C18.3525 5.96259 19.05 6.25009 19.775 6.25009H21.025C21.7543 6.25009 22.4538 6.53982 22.9695 7.05554C23.4852 7.57127 23.775 8.27074 23.775 9.00009V10.2501C23.775 10.9751 24.0625 11.6726 24.575 12.1876L25.45 13.0626C25.707 13.3181 25.9109 13.622 26.0501 13.9566C26.1892 14.2913 26.2609 14.6502 26.2609 15.0126C26.2609 15.375 26.1892 15.7339 26.0501 16.0685C25.9109 16.4032 25.707 16.707 25.45 16.9626L24.575 17.8376C24.063 18.3525 23.7754 19.049 23.775 19.7751V21.0251C23.775 21.7544 23.4852 22.4539 22.9695 22.9696C22.4538 23.4854 21.7543 23.7751 21.025 23.7751H19.775C19.0488 23.7755 18.3524 24.0631 17.8375 24.5751L16.9625 25.4501C16.7069 25.7071 16.4031 25.911 16.0684 26.0502C15.7338 26.1894 15.3749 26.261 15.0125 26.261C14.65 26.261 14.2912 26.1894 13.9565 26.0502C13.6219 25.911 13.318 25.7071 13.0625 25.4501L12.1875 24.5751C11.6726 24.0631 10.9761 23.7755 10.25 23.7751H8.99997C8.27062 23.7751 7.57115 23.4854 7.05542 22.9696C6.5397 22.4539 6.24997 21.7544 6.24997 21.0251V19.7751C6.24955 19.049 5.96197 18.3525 5.44997 17.8376L4.57497 16.9626C4.31797 16.707 4.11402 16.4032 3.97485 16.0685C3.83568 15.7339 3.76404 15.375 3.76404 15.0126C3.76404 14.6502 3.83568 14.2913 3.97485 13.9566C4.11402 13.622 4.31797 13.3181 4.57497 13.0626L5.44997 12.1876C5.96197 11.6727 6.24955 10.9762 6.24997 10.2501V9.00009Z" stroke="#FFD233" stroke-width="2" stroke-linecap="round" stroke-linejoin="round"/>
</g>
</g>
</svg>
