<svg width="20" height="20" viewBox="0 0 20 20" fill="none" xmlns="http://www.w3.org/2000/svg">
<g id="mingcute:pencil-line" clip-path="url(#clip0_106_926)">
<g id="Group">
<path id="Vector" d="M13.3624 2.51272C13.8112 2.06389 14.4138 1.80252 15.0481 1.78163C15.6825 1.76074 16.301 1.98189 16.7783 2.40022L16.8983 2.51272L17.4874 3.10189C17.936 3.55058 18.1972 4.15304 18.2181 4.78717C18.239 5.4213 18.018 6.03965 17.5999 6.51689L17.4874 6.63689L8.1441 15.9811C8.01199 16.1132 7.85196 16.214 7.67577 16.2761L7.54077 16.3152L3.8291 17.1719C3.69907 17.2019 3.56373 17.2003 3.43444 17.1673C3.30515 17.1342 3.18569 17.0705 3.08609 16.9817C2.98649 16.8929 2.90965 16.7814 2.86204 16.6568C2.81442 16.5321 2.79741 16.3978 2.81243 16.2652L2.8291 16.1711L3.68493 12.4586C3.72721 12.2765 3.80979 12.1062 3.9266 11.9602L4.0191 11.8561L13.3624 2.51272ZM12.7733 5.45856L5.2816 12.9502L4.7516 15.2486L7.04993 14.7177L14.5416 7.22606L12.7733 5.45856ZM15.7199 3.69106C15.5764 3.54758 15.3855 3.46138 15.183 3.44865C14.9805 3.43592 14.7803 3.49751 14.6199 3.62189L14.5416 3.69106L13.9516 4.28022L15.7199 6.04772L16.3091 5.45856C16.4526 5.31506 16.5388 5.12415 16.5515 4.92162C16.5642 4.7191 16.5026 4.51889 16.3783 4.35856L16.3091 4.28022L15.7199 3.69106Z" fill="white"/>
</g>
</g>
<defs>
<clipPath id="clip0_106_926">
<rect width="20" height="20" fill="white"/>
</clipPath>
</defs>
</svg>
