<svg width="15" height="15" viewBox="0 0 10 10" fill="none" xmlns="http://www.w3.org/2000/svg">
<path id="Vector" d="M5 0C4.0111 0 3.0444 0.293245 2.22215 0.842652C1.3999 1.39206 0.759043 2.17295 0.380605 3.08658C0.0021664 4.00021 -0.0968502 5.00555 0.0960758 5.97545C0.289002 6.94536 0.765206 7.83627 1.46447 8.53553C2.16373 9.23479 3.05465 9.711 4.02455 9.90392C4.99445 10.0969 5.99979 9.99783 6.91342 9.6194C7.82705 9.24096 8.60794 8.6001 9.15735 7.77785C9.70676 6.9556 10 5.98891 10 5C10 3.67392 9.47322 2.40215 8.53553 1.46447C7.59785 0.526784 6.32608 0 5 0ZM8.4375 5.625H7.55938L6.875 8.225C6.85329 8.30876 6.80437 8.38295 6.73593 8.4359C6.6675 8.48886 6.58341 8.5176 6.49688 8.5176C6.41034 8.5176 6.32626 8.48886 6.25782 8.4359C6.18938 8.38295 6.14047 8.30876 6.11875 8.225L5.43125 5.625H4.59063L3.90625 8.225C3.88454 8.30876 3.83562 8.38295 3.76718 8.4359C3.69875 8.48886 3.61466 8.5176 3.52813 8.5176C3.44159 8.5176 3.35751 8.48886 3.28907 8.4359C3.22063 8.38295 3.17172 8.30876 3.15 8.225L2.4625 5.625H1.5625C1.47962 5.625 1.40014 5.59208 1.34153 5.53347C1.28293 5.47486 1.25 5.39538 1.25 5.3125C1.25 5.22962 1.28293 5.15013 1.34153 5.09153C1.40014 5.03292 1.47962 5 1.5625 5H2.29688L2.13125 4.375H1.5625C1.47962 4.375 1.40014 4.34207 1.34153 4.28347C1.28293 4.22486 1.25 4.14538 1.25 4.0625C1.25 3.97962 1.28293 3.90013 1.34153 3.84153C1.40014 3.78292 1.47962 3.75 1.5625 3.75H1.96875L1.65625 2.6C1.62973 2.49971 1.64413 2.393 1.69629 2.30334C1.74845 2.21367 1.83409 2.1484 1.93438 2.12187C2.03466 2.09535 2.14138 2.10976 2.23104 2.16191C2.32071 2.21407 2.38598 2.29971 2.4125 2.4L2.775 3.75H4.275L4.63125 2.4C4.65297 2.31623 4.70188 2.24205 4.77032 2.18909C4.83876 2.13614 4.92284 2.1074 5.00938 2.1074C5.09591 2.1074 5.18 2.13614 5.24843 2.18909C5.31687 2.24205 5.36579 2.31623 5.3875 2.4L5.74375 3.75H7.24375L7.6 2.4C7.62652 2.29971 7.6918 2.21407 7.78146 2.16191C7.87113 2.10976 7.97784 2.09535 8.07813 2.12187C8.17841 2.1484 8.26405 2.21367 8.31621 2.30334C8.36837 2.393 8.38277 2.49971 8.35625 2.6L8.04375 3.75H8.4375C8.52038 3.75 8.59987 3.78292 8.65847 3.84153C8.71708 3.90013 8.75 3.97962 8.75 4.0625C8.75 4.14538 8.71708 4.22486 8.65847 4.28347C8.59987 4.34207 8.52038 4.375 8.4375 4.375H7.8875L7.72188 5H8.4375C8.52038 5 8.59987 5.03292 8.65847 5.09153C8.71708 5.15013 8.75 5.22962 8.75 5.3125C8.75 5.39538 8.71708 5.47486 8.65847 5.53347C8.59987 5.59208 8.52038 5.625 8.4375 5.625Z" fill="#FFD233"/>
</svg>
