<svg width="15" height="14" viewBox="0 0 15 14" fill="none" xmlns="http://www.w3.org/2000/svg">
<path d="M11.8333 1C12.408 1 12.9591 1.22311 13.3654 1.62024C13.7717 2.01738 14 2.55601 14 3.11765V8.76471C14 9.32634 13.7717 9.86497 13.3654 10.2621C12.9591 10.6592 12.408 10.8824 11.8333 10.8824H8.22222L4.61111 13V10.8824H3.16667C2.59203 10.8824 2.04093 10.6592 1.6346 10.2621C1.22827 9.86497 1 9.32634 1 8.76471V3.11765C1 2.55601 1.22827 2.01738 1.6346 1.62024C2.04093 1.22311 2.59203 1 3.16667 1H11.8333Z" stroke="#44B0FF" stroke-linecap="round" stroke-linejoin="round"/>
<path d="M6.77799 3.82373L4.61133 5.94138M4.61133 5.94138L6.77799 8.05902M4.61133 5.94138H10.3891" stroke="#44B0FF" stroke-linecap="round" stroke-linejoin="round"/>
</svg>
