<svg width="15" height="15" viewBox="0 0 10 10" fill="none" xmlns="http://www.w3.org/2000/svg">
<path id="Vector" d="M7.23889 5.71327C7.6495 5.71327 8.01063 5.90236 8.22331 6.18957H4.99895C4.6499 6.18957 4.31516 6.31502 4.06835 6.53833C3.82154 6.76165 3.68288 7.06452 3.68288 7.38033V9.28554C3.68288 9.36223 3.69078 9.43796 3.70657 9.51036C2.1594 9.42177 1.00284 8.91498 0.269004 7.98285C0.0941095 7.76095 7.42224e-05 7.49522 0 7.22267V6.78447C0 6.50037 0.124735 6.22791 0.346766 6.02701C0.568797 5.82612 0.869935 5.71327 1.18393 5.71327H7.23889ZM4.20931 0C4.55496 -4.66027e-09 4.89724 0.0615997 5.21658 0.181282C5.53593 0.300965 5.82609 0.476386 6.07051 0.697531C6.31492 0.918675 6.5088 1.18121 6.64108 1.47015C6.77336 1.75909 6.84144 2.06877 6.84144 2.38152C6.84144 2.69427 6.77336 3.00395 6.64108 3.29289C6.5088 3.58183 6.31492 3.84436 6.07051 4.06551C5.82609 4.28665 5.53593 4.46207 5.21658 4.58176C4.89724 4.70144 4.55496 4.76304 4.20931 4.76304C3.51122 4.76304 2.84173 4.51213 2.34811 4.06551C1.85449 3.61889 1.57717 3.01314 1.57717 2.38152C1.57717 1.7499 1.85449 1.14415 2.34811 0.697531C2.84173 0.250909 3.51122 0 4.20931 0ZM4.20931 7.38033C4.20931 7.19084 4.2925 7.00912 4.44059 6.87513C4.58867 6.74115 4.78952 6.66587 4.99895 6.66587H9.21036C9.41979 6.66587 9.62063 6.74115 9.76872 6.87513C9.91681 7.00912 10 7.19084 10 7.38033V9.28554C10 9.47503 9.91681 9.65675 9.76872 9.79074C9.62063 9.92473 9.41979 10 9.21036 10H4.99895C4.78952 10 4.58867 9.92473 4.44059 9.79074C4.2925 9.65675 4.20931 9.47503 4.20931 9.28554V7.38033ZM9.47357 7.61848C9.33396 7.61848 9.20006 7.5683 9.10133 7.47898C9.00261 7.38965 8.94715 7.2685 8.94715 7.14218H8.42072C8.42072 7.39482 8.53165 7.63712 8.72909 7.81577C8.92654 7.99442 9.19434 8.09478 9.47357 8.09478V7.61848ZM9.47357 8.57109C9.19434 8.57109 8.92654 8.67145 8.72909 8.8501C8.53165 9.02875 8.42072 9.27105 8.42072 9.5237H8.94715C8.94715 9.39737 9.00261 9.27622 9.10133 9.1869C9.20006 9.09757 9.33396 9.04739 9.47357 9.04739V8.57109ZM5.26216 7.14218C5.26216 7.2685 5.2067 7.38965 5.10797 7.47898C5.00925 7.5683 4.87535 7.61848 4.73573 7.61848V8.09478C5.01497 8.09478 5.28276 7.99442 5.48021 7.81577C5.67766 7.63712 5.78859 7.39482 5.78859 7.14218H5.26216ZM5.78859 9.5237C5.78859 9.27105 5.67766 9.02875 5.48021 8.8501C5.28276 8.67145 5.01497 8.57109 4.73573 8.57109V9.04739C4.87535 9.04739 5.00925 9.09757 5.10797 9.1869C5.2067 9.27622 5.26216 9.39737 5.26216 9.5237H5.78859ZM8.0259 8.33294C8.0259 8.11187 7.92884 7.89986 7.75607 7.74354C7.58331 7.58722 7.34898 7.4994 7.10465 7.4994C6.86032 7.4994 6.626 7.58722 6.45323 7.74354C6.28047 7.89986 6.18341 8.11187 6.18341 8.33294C6.18341 8.554 6.28047 8.76602 6.45323 8.92233C6.626 9.07865 6.86032 9.16647 7.10465 9.16647C7.34898 9.16647 7.58331 9.07865 7.75607 8.92233C7.92884 8.76602 8.0259 8.554 8.0259 8.33294Z" fill="#0FA958"/>
</svg>
