<svg width="21" height="20" viewBox="0 0 21 20" fill="none" xmlns="http://www.w3.org/2000/svg">
<g clip-path="url(#clip0_492_959)">
<path d="M10.5 6L16.1 8.66667V19.3333H4.9V8.66667L10.5 6ZM10.5 6V0M0 19.3333H21M2.1 19.3333V11.3333H4.9M18.9 19.3333V11.3333H16.1M9.1 19.3333V15.3333H11.9V19.3333M10.5 0.666667H14.7V3.33333H10.5M10.5 12.6667C10.1287 12.6667 9.7726 12.5262 9.51005 12.2761C9.2475 12.0261 9.1 11.687 9.1 11.3333C9.1 10.9797 9.2475 10.6406 9.51005 10.3905C9.7726 10.1405 10.1287 10 10.5 10C10.8713 10 11.2274 10.1405 11.4899 10.3905C11.7525 10.6406 11.9 10.9797 11.9 11.3333C11.9 11.687 11.7525 12.0261 11.4899 12.2761C11.2274 12.5262 10.8713 12.6667 10.5 12.6667Z" stroke="#A8A8A8" stroke-width="1.5"/>
</g>
<defs>
<clipPath id="clip0_492_959">
<rect width="21" height="20" fill="white"/>
</clipPath>
</defs>
</svg>
