<svg width="24" height="17" viewBox="0 0 24 17" fill="none" xmlns="http://www.w3.org/2000/svg">
<path d="M9.99958 9.91667L20.9996 2.125M9.99958 9.91667L13.4996 14.875C13.5435 14.9428 13.6139 15.0003 13.7025 15.0406C13.7912 15.0809 13.8943 15.1023 13.9996 15.1023C14.1049 15.1023 14.208 15.0809 14.2966 15.0406C14.3853 15.0003 14.4557 14.9428 14.4996 14.875L20.9996 2.125M9.99958 9.91667L2.99958 7.4375C2.90384 7.40642 2.82271 7.35653 2.76583 7.29375C2.70895 7.23096 2.67871 7.15793 2.67871 7.08333C2.67871 7.00873 2.70895 6.9357 2.76583 6.87292C2.82271 6.81014 2.90384 6.76024 2.99958 6.72917L20.9996 2.125" stroke="current" stroke-width="2" stroke-linecap="round" stroke-linejoin="round"/>
</svg>
