<svg width="17" height="16" viewBox="0 0 17 16" fill="none" xmlns="http://www.w3.org/2000/svg">
<path d="M15.611 8.52793C15.4723 8.38196 15.3958 8.1943 15.3958 8C15.3958 7.8057 15.4723 7.61804 15.611 7.47207L16.7185 6.32023C16.8405 6.19438 16.9163 6.03603 16.9349 5.8679C16.9536 5.69976 16.9141 5.53049 16.8223 5.38436L15.0919 2.61673C15.001 2.47077 14.8625 2.35507 14.6963 2.28613C14.5301 2.21718 14.3445 2.19852 14.1661 2.23278L12.5396 2.53674C12.3326 2.57628 12.1172 2.54441 11.9339 2.44716C11.7506 2.3499 11.6121 2.19398 11.5446 2.00882L11.0169 0.545014C10.9588 0.386139 10.8482 0.248146 10.7007 0.150541C10.5532 0.0529359 10.3763 0.000654948 10.1949 0.00108782H6.73416C6.5455 -0.00801657 6.35879 0.0402236 6.20256 0.13844C6.04633 0.236657 5.92917 0.379452 5.86897 0.545014L5.38447 2.00882C5.31698 2.19398 5.17853 2.3499 4.99523 2.44716C4.81193 2.54441 4.59647 2.57628 4.3895 2.53674L2.71968 2.23278C2.55058 2.21069 2.37819 2.23536 2.22423 2.30369C2.07027 2.37201 1.94162 2.48093 1.85449 2.61673L0.124112 5.38436C0.0299451 5.52886 -0.0123955 5.69718 0.00314371 5.86527C0.0186829 6.03336 0.0913063 6.1926 0.210631 6.32023L1.30942 7.47207C1.44813 7.61804 1.52463 7.8057 1.52463 8C1.52463 8.1943 1.44813 8.38196 1.30942 8.52793L0.210631 9.67977C0.0913063 9.8074 0.0186829 9.96664 0.00314371 10.1347C-0.0123955 10.3028 0.0299451 10.4711 0.124112 10.6156L1.85449 13.3833C1.94542 13.5292 2.08387 13.6449 2.2501 13.7139C2.41633 13.7828 2.60186 13.8015 2.78025 13.7672L4.4068 13.4633C4.61377 13.4237 4.82924 13.4556 5.01253 13.5528C5.19583 13.6501 5.33429 13.806 5.40177 13.9912L5.92954 15.455C5.98974 15.6205 6.1069 15.7633 6.26313 15.8616C6.41935 15.9598 6.60606 16.008 6.79473 15.9989H10.2555C10.4369 15.9993 10.6138 15.9471 10.7613 15.8495C10.9088 15.7519 11.0194 15.6139 11.0774 15.455L11.6052 13.9912C11.6727 13.806 11.8111 13.6501 11.9944 13.5528C12.1777 13.4556 12.3932 13.4237 12.6002 13.4633L14.2267 13.7672C14.4051 13.8015 14.5906 13.7828 14.7569 13.7139C14.9231 13.6449 15.0615 13.5292 15.1525 13.3833L16.8828 10.6156C16.9747 10.4695 17.0141 10.3002 16.9955 10.1321C16.9768 9.96397 16.9011 9.80562 16.779 9.67977L15.611 8.52793ZM14.3219 9.59978L15.014 10.3197L13.9066 12.0954L12.8857 11.9035C12.2625 11.7857 11.6143 11.8836 11.0641 12.1785C10.5139 12.4734 10.0999 12.9448 9.90076 13.5033L9.57199 14.3991H7.3571L7.04563 13.4873C6.84651 12.9288 6.43254 12.4574 5.8823 12.1625C5.33206 11.8676 4.68386 11.7697 4.06073 11.8875L3.0398 12.0794L1.91506 10.3117L2.60721 9.59178C3.03284 9.15183 3.26815 8.58227 3.26815 7.992C3.26815 7.40174 3.03284 6.83218 2.60721 6.39222L1.91506 5.67232L3.0225 3.91256L4.04342 4.10453C4.66655 4.22229 5.31476 4.12443 5.865 3.82953C6.41524 3.53462 6.82921 3.0632 7.02833 2.50475L7.3571 1.60087H9.57199L9.90076 2.51275C10.0999 3.0712 10.5139 3.54262 11.0641 3.83752C11.6143 4.13243 12.2625 4.23029 12.8857 4.11253L13.9066 3.92055L15.014 5.69631L14.3219 6.41622C13.901 6.85516 13.6686 7.42142 13.6686 8.008C13.6686 8.59457 13.901 9.16083 14.3219 9.59978ZM8.46455 4.80044C7.78007 4.80044 7.11097 4.98809 6.54185 5.33966C5.97273 5.69123 5.52916 6.19094 5.26722 6.77558C5.00528 7.36022 4.93675 8.00355 5.07028 8.6242C5.20382 9.24486 5.53342 9.81497 6.01742 10.2624C6.50141 10.7099 7.11806 11.0146 7.78938 11.1381C8.46071 11.2615 9.15655 11.1982 9.78892 10.956C10.4213 10.7138 10.9618 10.3037 11.3421 9.77758C11.7223 9.25142 11.9253 8.63281 11.9253 8C11.9253 7.15142 11.5607 6.3376 10.9117 5.73757C10.2627 5.13753 9.3824 4.80044 8.46455 4.80044ZM8.46455 9.59978C8.12231 9.59978 7.78776 9.50596 7.5032 9.33017C7.21864 9.15438 6.99685 8.90453 6.86588 8.61221C6.73491 8.31989 6.70065 7.99823 6.76741 7.6879C6.83418 7.37757 6.99898 7.09252 7.24098 6.86878C7.48298 6.64505 7.7913 6.49268 8.12696 6.43096C8.46263 6.36923 8.81055 6.40091 9.12673 6.52199C9.44292 6.64308 9.71317 6.84813 9.9033 7.11121C10.0934 7.37429 10.1949 7.68359 10.1949 8C10.1949 8.42429 10.0126 8.8312 9.68811 9.13122C9.3636 9.43123 8.92347 9.59978 8.46455 9.59978Z" fill="#AAAAAA"/>
</svg>
