<svg width="12" height="12" viewBox="0 0 12 12" fill="none" xmlns="http://www.w3.org/2000/svg">
<path id="Vector" d="M11.9482 4.50068C11.8853 4.30094 11.7672 4.12476 11.6085 3.99403C11.4498 3.86329 11.2576 3.78377 11.0556 3.76535L8.10815 3.50113L6.95501 0.653068C6.87569 0.459387 6.74312 0.294186 6.57384 0.178055C6.40455 0.0619245 6.20604 0 6.00303 0C5.80002 0 5.6015 0.0619245 5.43222 0.178055C5.26293 0.294186 5.13037 0.459387 5.05104 0.653068L3.89635 3.50113L0.948865 3.76535C0.745844 3.78277 0.55231 3.86195 0.392545 3.99295C0.23278 4.12395 0.113901 4.30094 0.0508244 4.50171C-0.0122523 4.70247 -0.0167173 4.91807 0.0379897 5.12146C0.0926967 5.32484 0.204139 5.50696 0.358333 5.64494L2.59842 7.67085L1.92619 10.685C1.88009 10.8903 1.89338 11.1051 1.96441 11.3025C2.03544 11.5 2.16105 11.6714 2.32554 11.7953C2.49003 11.9191 2.6861 11.99 2.88924 11.999C3.09238 12.008 3.29357 11.9548 3.46767 11.8459L6.00148 10.2509L8.53528 11.8459C8.70937 11.9546 8.9105 12.0077 9.11355 11.9986C9.31659 11.9895 9.51255 11.9186 9.67695 11.7948C9.84135 11.6709 9.96689 11.4996 10.0379 11.3023C10.1089 11.1049 10.1223 10.8902 10.0762 10.685L9.40401 7.67085L11.6441 5.64494C11.7979 5.50645 11.9088 5.32398 11.9629 5.12041C12.017 4.91684 12.0119 4.70124 11.9482 4.50068ZM8.4965 6.78491C8.35469 6.91279 8.24918 7.07831 8.19133 7.26368C8.13347 7.44905 8.12546 7.64725 8.16814 7.83699L8.75712 10.4803L6.53668 9.08255C6.37543 8.98078 6.19027 8.92694 6.00148 8.92694C5.81268 8.92694 5.62753 8.98078 5.46628 9.08255L3.24584 10.4803L3.83482 7.83699C3.8775 7.64725 3.86948 7.44905 3.81163 7.26368C3.75377 7.07831 3.64827 6.91279 3.50646 6.78491L1.53681 5.00394L4.12956 4.77134C4.31732 4.75467 4.49706 4.68495 4.64923 4.56976C4.8014 4.45456 4.92017 4.29831 4.99261 4.11801L6.00148 1.62636L7.01034 4.11801C7.08278 4.29831 7.20155 4.45456 7.35372 4.56976C7.50589 4.68495 7.68564 4.75467 7.87339 4.77134L10.4661 5.00394L8.4965 6.78491Z" fill="#FFE920"/>
</svg>
