<svg width="27" height="27" viewBox="0 0 27 27" fill="none" xmlns="http://www.w3.org/2000/svg">
<g id="clarityEmployeeGroupLine0">
<path id="Vector" d="M13.8281 12.2525C12.9494 12.2433 12.0931 11.9757 11.367 11.4834C10.6409 10.9911 10.0774 10.2961 9.74755 9.48597C9.41768 8.6758 9.33615 7.78666 9.51323 6.9305C9.69032 6.07434 10.1181 5.28943 10.7427 4.6746C11.3673 4.05976 12.1608 3.64249 13.0233 3.47532C13.8859 3.30815 14.7788 3.39855 15.5898 3.73514C16.4008 4.07173 17.0935 4.63947 17.5808 5.36687C18.068 6.09426 18.3281 6.9488 18.3281 7.8229C18.3199 9.00324 17.8416 10.1322 16.9981 10.9625C16.1547 11.7928 15.0148 12.2566 13.8281 12.2525ZM13.8281 4.94755C13.2585 4.95674 12.7043 5.13316 12.2352 5.45464C11.766 5.77612 11.4028 6.22833 11.1912 6.75448C10.9796 7.28062 10.929 7.85723 11.0458 8.41189C11.1625 8.96654 11.4415 9.47451 11.8475 9.87198C12.2536 10.2695 12.7687 10.5387 13.3281 10.6459C13.8875 10.7532 14.4663 10.6936 14.9918 10.4746C15.5172 10.2557 15.9659 9.88719 16.2815 9.4154C16.5971 8.94362 16.7656 8.38959 16.7656 7.8229C16.7574 7.05476 16.4438 6.32112 15.8933 5.78232C15.3429 5.24352 14.6004 4.9434 13.8281 4.94755Z" fill="current" stroke="current" stroke-width="0.5"/>
<path id="Vector_2" d="M13.8281 12.2525C12.9494 12.2433 12.0931 11.9757 11.367 11.4834C10.6409 10.9911 10.0774 10.2961 9.74755 9.48597C9.41768 8.6758 9.33615 7.78666 9.51323 6.9305C9.69031 6.07434 10.1181 5.28943 10.7427 4.6746C11.3673 4.05976 12.1608 3.64249 13.0233 3.47532C13.8859 3.30815 14.7788 3.39855 15.5898 3.73514C16.4008 4.07173 17.0935 4.63947 17.5808 5.36687C18.068 6.09426 18.3281 6.9488 18.3281 7.8229C18.3199 9.00324 17.8416 10.1322 16.9981 10.9625C16.1547 11.7928 15.0148 12.2566 13.8281 12.2525ZM13.8281 4.94755C13.2585 4.95674 12.7043 5.13316 12.2352 5.45464C11.766 5.77612 11.4028 6.22833 11.1912 6.75448C10.9796 7.28062 10.929 7.85723 11.0457 8.41189C11.1625 8.96654 11.4415 9.47451 11.8475 9.87198C12.2536 10.2695 12.7687 10.5387 13.3281 10.6459C13.8875 10.7532 14.4663 10.6936 14.9917 10.4746C15.5172 10.2557 15.9659 9.88719 16.2815 9.4154C16.5971 8.94362 16.7655 8.38959 16.7656 7.8229C16.7574 7.05477 16.4438 6.32112 15.8933 5.78232C15.3429 5.24352 14.6004 4.9434 13.8281 4.94755ZM16.5547 13.2938C13.0895 12.694 9.52216 13.24 6.39844 14.8481C6.1767 14.9705 5.99309 15.1513 5.8677 15.3706C5.74231 15.5899 5.67997 15.8393 5.6875 16.0915V18.858C5.6875 19.0641 5.76981 19.2618 5.91632 19.4075C6.06283 19.5533 6.26155 19.6351 6.46875 19.6351C6.67595 19.6351 6.87466 19.5533 7.02118 19.4075C7.16769 19.2618 7.25 19.0641 7.25 18.858V16.1925C10.1466 14.7468 13.4406 14.288 16.625 14.8869L16.5547 13.2938Z" fill="current" stroke="current" stroke-width="0.5"/>
<path id="Vector_3" d="M25.2187 16.6743H19.9844V15.5242C19.9844 15.3181 19.9021 15.1204 19.7556 14.9747C19.609 14.8289 19.4103 14.7471 19.2031 14.7471C18.9959 14.7471 18.7972 14.8289 18.6507 14.9747C18.5042 15.1204 18.4219 15.3181 18.4219 15.5242V16.6743H12.7187C12.5115 16.6743 12.3128 16.7562 12.1663 16.9019C12.0198 17.0477 11.9375 17.2453 11.9375 17.4514V25.2227C11.9375 25.4288 12.0198 25.6264 12.1663 25.7722C12.3128 25.9179 12.5115 25.9998 12.7187 25.9998H25.2187C25.4259 25.9998 25.6247 25.9179 25.7712 25.7722C25.9177 25.6264 26 25.4288 26 25.2227V17.4514C26 17.2453 25.9177 17.0477 25.7712 16.9019C25.6247 16.7562 25.4259 16.6743 25.2187 16.6743ZM24.4375 24.4455H13.5V18.2286H18.4219V18.5472C18.4219 18.7533 18.5042 18.951 18.6507 19.0967C18.7972 19.2424 18.9959 19.3243 19.2031 19.3243C19.4103 19.3243 19.609 19.2424 19.7556 19.0967C19.9021 18.951 19.9844 18.7533 19.9844 18.5472V18.2286H24.4375V24.4455Z" fill="current" stroke="current" stroke-width="0.5"/>
<path id="Vector_4" d="M16.4766 20.8865H21.1328V21.9745H16.4766V20.8865ZM7.90625 9.08986C5.74331 9.12585 3.61789 9.65772 1.69531 10.6441C1.48622 10.754 1.31108 10.9183 1.18861 11.1195C1.06613 11.3207 1.00094 11.5512 1 11.7865V14.1955C1 14.4016 1.08231 14.5993 1.22882 14.745C1.37534 14.8908 1.57405 14.9727 1.78125 14.9727C1.98845 14.9727 2.18716 14.8908 2.33368 14.745C2.48019 14.5993 2.5625 14.4016 2.5625 14.1955V11.9419C4.39945 11.0324 6.43325 10.5867 8.48437 10.6441C8.21601 10.1571 8.02122 9.63336 7.90625 9.08986ZM25.3047 10.6363C23.5804 9.73658 21.6853 9.20708 19.7422 9.08208C19.6278 9.62462 19.4357 10.148 19.1719 10.6363C21.0024 10.6799 22.8006 11.1257 24.4375 11.9419V14.1955C24.4375 14.4016 24.5198 14.5993 24.6663 14.745C24.8128 14.8908 25.0115 14.9727 25.2187 14.9727C25.4259 14.9727 25.6247 14.8908 25.7712 14.745C25.9177 14.5993 26 14.4016 26 14.1955V11.7865C26.0005 11.5499 25.936 11.3178 25.8134 11.1151C25.6909 10.9123 25.5149 10.7468 25.3047 10.6363ZM7.76562 7.82315V7.30248C7.15361 7.22101 6.59676 6.90789 6.21099 6.42829C5.82523 5.9487 5.64028 5.33959 5.69464 4.72777C5.749 4.11594 6.03848 3.54854 6.50283 3.14368C6.96717 2.73883 7.5706 2.52771 8.1875 2.55427C8.82915 2.55312 9.44589 2.80129 9.90625 3.24591C10.3124 2.91267 10.7585 2.63076 11.2344 2.40662C10.7028 1.79864 9.99854 1.36515 9.21436 1.16328C8.43018 0.961409 7.60291 1.00063 6.84159 1.27578C6.08027 1.55094 5.42064 2.0491 4.94963 2.70461C4.47862 3.36012 4.21835 4.14221 4.20312 4.9478C4.21952 5.93378 4.60484 6.87826 5.28383 7.59677C5.96281 8.31528 6.88669 8.7562 7.875 8.83341C7.80873 8.50051 7.77212 8.16245 7.76562 7.82315ZM18.7891 1.00003C18.2522 1.00015 17.7207 1.10673 17.2257 1.31356C16.7307 1.52038 16.2822 1.82329 15.9062 2.20457C16.4344 2.39494 16.9338 2.65641 17.3906 2.98169C17.7553 2.72985 18.1819 2.58119 18.6249 2.55156C19.0679 2.52193 19.5107 2.61245 19.906 2.81346C20.3014 3.01447 20.6344 3.31843 20.8697 3.69295C21.1051 4.06746 21.2338 4.49847 21.2422 4.94003C21.2373 5.39359 21.1033 5.83648 20.8558 6.21745C20.6083 6.59841 20.2574 6.90186 19.8437 7.09266C19.8752 7.33229 19.8908 7.57371 19.8906 7.81538C19.8885 8.12775 19.8624 8.43951 19.8125 8.74792C20.6636 8.53028 21.4185 8.03886 21.9596 7.35016C22.5008 6.66146 22.7979 5.81412 22.8047 4.94003C22.7944 3.88882 22.3663 2.8844 21.6138 2.14616C20.8614 1.40792 19.8459 0.995875 18.7891 1.00003Z" fill="current" stroke="current" stroke-width="0.5"/>
</g>
</svg>
