<svg width="21" height="20" viewBox="0 0 21 20" fill="none" xmlns="http://www.w3.org/2000/svg">
<path d="M10.5 1.6665C9.63471 1.6665 8.78885 1.91087 8.06938 2.36871C7.34992 2.82655 6.78916 3.4773 6.45803 4.23866C6.12689 5.00001 6.04025 5.83779 6.20906 6.64605C6.37787 7.4543 6.79455 8.19673 7.40641 8.77945C8.01826 9.36217 8.79781 9.759 9.64648 9.91978C10.4951 10.0805 11.3748 9.99803 12.1742 9.68267C12.9737 9.3673 13.6569 8.83325 14.1377 8.14805C14.6184 7.46284 14.875 6.65726 14.875 5.83317C14.875 4.7281 14.4141 3.66829 13.5936 2.88689C12.7731 2.10549 11.6603 1.6665 10.5 1.6665ZM10.5 8.33317C9.98082 8.33317 9.47331 8.18655 9.04163 7.91184C8.60995 7.63714 8.2735 7.24669 8.07482 6.78988C7.87614 6.33306 7.82415 5.8304 7.92544 5.34544C8.02672 4.86049 8.27673 4.41504 8.64384 4.0654C9.01096 3.71577 9.47869 3.47767 9.98789 3.38121C10.4971 3.28474 11.0249 3.33425 11.5045 3.52347C11.9842 3.71269 12.3942 4.03312 12.6826 4.44424C12.971 4.85537 13.125 5.33872 13.125 5.83317C13.125 6.49621 12.8484 7.1321 12.3562 7.60094C11.8639 8.06978 11.1962 8.33317 10.5 8.33317ZM18.375 17.4998V16.6665C18.375 15.1194 17.7297 13.6357 16.581 12.5417C15.4324 11.4478 13.8745 10.8332 12.25 10.8332H8.75C7.12555 10.8332 5.56763 11.4478 4.41897 12.5417C3.27031 13.6357 2.625 15.1194 2.625 16.6665V17.4998H4.375V16.6665C4.375 15.5614 4.83594 14.5016 5.65641 13.7202C6.47688 12.9388 7.58968 12.4998 8.75 12.4998H12.25C13.4103 12.4998 14.5231 12.9388 15.3436 13.7202C16.1641 14.5016 16.625 15.5614 16.625 16.6665V17.4998H18.375Z" fill="#A8A8A8"/>
</svg>
